<?xml version="1.0" standalone="no"?><!DOCTYPE svg PUBLIC "-//W3C//DTD SVG 1.1//EN" "http://www.w3.org/Graphics/SVG/1.1/DTD/svg11.dtd"><svg t="1490500383106" class="icon" style="" viewBox="0 0 1024 1024" version="1.1" xmlns="http://www.w3.org/2000/svg" p-id="4052" xmlns:xlink="http://www.w3.org/1999/xlink" width="200" height="200"><defs><style type="text/css"></style></defs><path d="M733.59 376.566c-48.69-86.273-139.404-139.521-239.063-139.521-66.341 0-130.345 24.023-180.32 67.627-45.357 39.572-76.336 92.762-88.377 151.212-71.31 20.574-121.46 86.097-121.46 161.616 0 83.701 62.192 153.959 142.795 166.292v1.988h471.17c113.044 0 204.927-91.885 204.927-204.929 0.058-107.842-83.818-196.453-189.672-204.285z m-15.197 362.219H272.591l-1.579-0.118c-65.932-0.817-119.59-55.06-119.59-121.109 0-58.509 41.676-108.602 99.132-119.181l16.6-3.097 2.454-16.718c7.716-53.54 34.545-102.697 75.519-138.528 41.382-36.122 94.398-55.995 149.399-55.995 74.583 0 143.087 36.005 185.405 95.625-49.975 9.703-95.333 37.701-126.136 79.142-7.774 10.404-5.611 25.134 4.91 32.907 10.403 7.716 25.134 5.553 32.907-4.851 30.16-40.565 76.396-63.887 126.779-63.887 87.033 0 157.875 70.783 157.875 157.875s-70.84 157.935-157.873 157.935z" fill="#ffffff" p-id="4053"></path></svg>