<?xml version="1.0" standalone="no"?><!DOCTYPE svg PUBLIC "-//W3C//DTD SVG 1.1//EN" "http://www.w3.org/Graphics/SVG/1.1/DTD/svg11.dtd"><svg t="1490500445238" class="icon" style="" viewBox="0 0 1024 1024" version="1.1" xmlns="http://www.w3.org/2000/svg" p-id="4775" xmlns:xlink="http://www.w3.org/1999/xlink" width="200" height="200"><defs><style type="text/css"></style></defs><path d="M936.725 1013.446c-18.169 0-32.947-14.777-32.947-32.947 0-203.408-176.16-368.896-392.687-368.896-3.1 0-6.203 0.04-9.291 0.105a32.976 32.976 0 0 1-7.323 0.815c-3.027 0-6.053-0.046-9.062-0.141-205.844 12.536-367.029 174.148-367.029 368.116 0 18.17-14.78 32.947-32.944 32.947-18.167 0-32.946-14.777-32.946-32.947 0-94.422 31.521-184.292 91.154-259.881 52.514-66.569 125.283-118.267 206.847-147.375-89.703-53.147-144.451-152.208-144.451-264.375 0-164.386 135.83-298.124 302.784-298.124 166.917 0 302.721 133.735 302.721 298.124 0 77.98-30.421 151.752-85.654 207.73-6.271 6.323-14.596 9.79-23.461 9.79-8.71 0-16.923-3.372-23.127-9.489-6.268-6.173-9.755-14.427-9.81-23.232-0.061-8.79 3.312-17.083 9.48-23.347 42.985-43.521 66.654-100.845 66.654-161.431 0-128.053-106.24-232.229-236.827-232.229-130.624 0-236.895 104.176-236.895 232.229 0 130.12 91.376 232.153 212.634 237.55 8.787-0.48 17.716-0.721 26.551-0.721 252.86 0 458.574 195.039 458.574 434.78 0 18.172-14.787 32.949-32.945 32.949z" p-id="4776" fill="#ffffff"></path></svg>